<svg width="360" height="100" viewBox="0 0 360 100" fill="none" xmlns="http://www.w3.org/2000/svg">
<path d="M149.389 51.8598V69.3199C149.389 69.8865 148.928 70.3477 148.361 70.3477H140.817C140.248 70.3477 139.789 69.8865 139.789 69.3199V41.7484C139.789 41.1817 140.25 40.7205 140.817 40.7205H148.361C148.928 40.7205 149.389 41.1817 149.389 41.7484V43.9205C151.284 41.5507 153.95 40.0683 157.684 40.0683C161.18 40.0683 164.202 41.4914 166.038 44.1576C168.29 41.4914 171.49 40.0683 175.401 40.0683C182.038 40.0683 186.6 43.9797 186.6 51.4447V69.3199C186.6 69.8865 186.138 70.3477 185.572 70.3477H178.028C177.459 70.3477 177 69.8865 177 69.3199V53.4609C177 50.2017 175.164 48.6028 172.673 48.6028C170.6 48.6028 168.94 49.9074 167.991 51.862V69.3221C167.991 69.8887 167.53 70.3499 166.963 70.3499H159.419C158.85 70.3499 158.391 69.8887 158.391 69.3221V53.4631C158.391 50.2039 156.555 48.605 154.065 48.605C151.932 48.605 150.331 49.9096 149.382 51.8642" fill="#000008"/>
<path d="M199.217 70.9407C193.647 70.9407 188.965 67.2664 188.965 61.5782C188.965 56.3643 192.402 53.9331 198.802 52.275L206.981 50.1424C206.744 48.1878 205.202 47.239 202.714 47.239C200.508 47.239 198.923 48.0823 198.191 49.7691C197.987 50.239 197.497 50.5158 196.997 50.3972L190.516 48.8554C189.918 48.7127 189.569 48.0758 189.782 47.5003C191.642 42.4666 196.812 39.8289 203.067 39.8289C211.481 39.8289 216.341 43.7997 216.341 50.7903V69.3177C216.341 69.8866 215.88 70.3456 215.313 70.3456H208.16C207.602 70.3456 207.146 69.8997 207.132 69.3419L207.097 67.7979L207.038 67.8572C204.609 69.9305 202.239 70.9386 199.215 70.9386M201.644 63.5307C202.889 63.5307 203.836 63.1749 205.259 62.3447L206.917 61.3366L206.976 56.5356L202.709 57.7216C199.806 58.5518 198.501 59.2634 198.501 60.9215C198.501 62.7576 200.1 63.5285 201.642 63.5285" fill="#000008"/>
<path d="M231.669 56.3643L228.765 59.0305V69.3199C228.765 69.8887 228.304 70.3477 227.738 70.3477H220.371C219.803 70.3477 219.343 69.8865 219.343 69.3199V32.0278C219.343 31.4612 219.805 31 220.371 31H227.738C228.304 31 228.765 31.4612 228.765 32.0278V48.8971L237.359 40.9907C237.548 40.8172 237.798 40.7183 238.055 40.7183H247.15C248.09 40.7183 248.536 41.8736 247.844 42.5061L239.02 50.5553L249.083 68.8235C249.461 69.5088 248.964 70.3477 248.182 70.3477H239.584C239.202 70.3477 238.848 70.1347 238.673 69.7943L231.671 56.3621L231.669 56.3643Z" fill="#000008"/>
<path d="M262.928 71.0001C254.692 71.0001 247.165 65.8455 247.165 55.4156C247.165 45.5787 254.395 39.8905 262.335 39.8905C270.274 39.8905 276.558 45.638 276.793 54.7041C276.819 55.6616 276.834 56.3293 276.843 56.8036C276.852 57.3791 276.388 57.8447 275.815 57.8447H256.647C256.943 61.4004 259.787 63.6515 263.402 63.6515C265.974 63.6515 268.082 62.5819 269.56 60.6493C269.888 60.221 270.492 60.1222 270.94 60.423L275.727 63.6295C276.206 63.9502 276.325 64.6003 276.002 65.0769C273.437 68.8522 269.207 71.0001 262.93 71.0001M256.827 52.0378H267.197C267.138 48.66 264.65 47.1798 262.043 47.1798C259.614 47.1798 257.125 48.6029 256.829 52.0378" fill="#000008"/>
<mask id="mask0_827_3605" style="mask-type:luminance" maskUnits="userSpaceOnUse" x="116" y="40" width="10" height="31">
<path d="M117.274 40.7393H124.715C125.281 40.7393 125.743 41.2005 125.743 41.7671V69.2354C125.743 69.802 125.281 70.2632 124.715 70.2632H117.274C116.707 70.2632 116.246 69.802 116.246 69.2354V41.7671C116.246 41.2005 116.707 40.7393 117.274 40.7393Z" fill="white"/>
</mask>
<g mask="url(#mask0_827_3605)">
<path d="M124.606 37.6552L106.662 44.2715L117.382 73.3448L135.326 66.7285L124.606 37.6552Z" fill="url(#paint0_linear_827_3605)"/>
</g>
<mask id="mask1_827_3605" style="mask-type:luminance" maskUnits="userSpaceOnUse" x="83" y="40" width="22" height="31">
<path d="M95.4496 41.1018L83.1155 65.6447C82.8607 66.152 83.065 66.7692 83.5723 67.0239L90.2203 70.3644C90.7277 70.6192 91.3448 70.4149 91.5996 69.9076L103.934 45.3647C104.188 44.8573 103.984 44.2402 103.477 43.9854L96.8288 40.645C96.6795 40.5703 96.5235 40.5352 96.3676 40.5352C95.992 40.5352 95.6297 40.7416 95.4496 41.1018Z" fill="white"/>
</mask>
<g mask="url(#mask1_827_3605)">
<path d="M100.831 32.7671L71.9004 45.2744L86.2178 78.3917L115.148 65.8845L100.831 32.7671Z" fill="url(#paint1_linear_827_3605)"/>
</g>
<mask id="mask2_827_3605" style="mask-type:luminance" maskUnits="userSpaceOnUse" x="100" y="40" width="16" height="31">
<path d="M105.821 41.1883L100.543 67.9407C100.433 68.4963 100.794 69.0344 101.349 69.1464L108.643 70.6179C109.201 70.7299 109.745 70.3675 109.855 69.8096L115.133 43.0573C115.243 42.5017 114.882 41.9636 114.327 41.8516L107.033 40.3801C106.965 40.3669 106.897 40.3604 106.829 40.3604C106.348 40.3604 105.917 40.6986 105.821 41.1883Z" fill="white"/>
</mask>
<g mask="url(#mask2_827_3605)">
<path d="M113.476 35.5608L90.5879 43.9863L102.202 75.5364L125.09 67.1108L113.476 35.5608Z" fill="url(#paint2_linear_827_3605)"/>
</g>
<defs>
<linearGradient id="paint0_linear_827_3605" x1="106.832" y1="60.2554" x2="126.913" y2="52.8512" gradientUnits="userSpaceOnUse">
<stop stop-color="#B02DE9"/>
<stop offset="0.02" stop-color="#B02DE9"/>
<stop offset="0.8" stop-color="#6D00CC"/>
<stop offset="1" stop-color="#6D00CC"/>
</linearGradient>
<linearGradient id="paint1_linear_827_3605" x1="89.3628" y1="57.0913" x2="110.949" y2="47.7589" gradientUnits="userSpaceOnUse">
<stop stop-color="#FF00FF"/>
<stop offset="0.17" stop-color="#E90CF9"/>
<stop offset="0.54" stop-color="#C023ED"/>
<stop offset="0.73" stop-color="#B02DE9"/>
<stop offset="1" stop-color="#B02DE9"/>
</linearGradient>
<linearGradient id="paint2_linear_827_3605" x1="84.5442" y1="64.3482" x2="128.794" y2="48.0585" gradientUnits="userSpaceOnUse">
<stop stop-color="#FF00FF"/>
<stop offset="0.02" stop-color="#FF00FF"/>
<stop offset="0.09" stop-color="#E90CF9"/>
<stop offset="0.23" stop-color="#C023ED"/>
<stop offset="0.3" stop-color="#B02DE9"/>
<stop offset="0.42" stop-color="#A42BE3"/>
<stop offset="0.63" stop-color="#8626D5"/>
<stop offset="0.85" stop-color="#6021C3"/>
<stop offset="1" stop-color="#6021C3"/>
</linearGradient>
</defs>
</svg>
