<svg width="300" height="100" viewBox="0 0 300 100" fill="none" xmlns="http://www.w3.org/2000/svg">
<path d="M97.9034 34.0597C97.1981 28.7482 92.6274 24.5552 87.2163 23.7486C86.3007 23.6116 82.8408 23.1094 74.8254 23.1094H74.7653C66.7424 23.1094 65.0237 23.6116 64.1081 23.7486C58.8396 24.54 54.0363 28.2992 52.8655 33.6793C52.3102 36.3275 52.2501 39.2648 52.3552 41.9587C52.5053 45.8245 52.5353 49.6749 52.8806 53.5255C53.1207 56.0824 53.5335 58.6164 54.1264 61.1123C55.2371 65.7238 59.7252 69.5592 64.1232 71.1192C68.8288 72.7477 73.8948 73.0216 78.743 71.9029C79.2759 71.7737 79.8013 71.629 80.3266 71.4616C81.5049 71.0811 82.8858 70.655 83.9065 69.9093C83.9216 69.9016 83.9291 69.8864 83.9366 69.8712C83.9441 69.856 83.9516 69.8407 83.9516 69.8179V66.0891C83.9516 66.0891 83.9516 66.0587 83.9366 66.0435C83.9366 66.0283 83.9216 66.013 83.9065 66.0054C83.8915 65.9978 83.8765 65.9902 83.8616 65.9826C83.8464 65.9826 83.8315 65.9826 83.8165 65.9826C80.7093 66.736 77.5198 67.1165 74.3301 67.1088C68.8288 67.1088 67.3503 64.4606 66.9301 63.3648C66.5923 62.4136 66.3747 61.4168 66.2846 60.4123C66.2846 60.397 66.2846 60.3818 66.2921 60.3666C66.2921 60.3514 66.3071 60.3362 66.3222 60.3285C66.3371 60.321 66.3521 60.3133 66.3671 60.3058H66.4197C69.4743 61.0515 72.6114 61.432 75.756 61.432C76.5141 61.432 77.2645 61.432 78.0226 61.4092C81.1822 61.3178 84.5145 61.158 87.6291 60.5416C87.7041 60.5264 87.7867 60.5112 87.8542 60.496C92.7626 59.5372 97.4307 56.5389 97.9034 48.9444C97.9186 48.6476 97.9636 45.8092 97.9636 45.5048C97.9636 44.447 98.3013 38.0245 97.911 34.075L97.9034 34.0597Z" fill="url(#paint0_linear_799_5865)"/>
<path d="M61.5703 37.0279C61.5703 35.4755 62.7936 34.2275 64.3096 34.2275C65.8257 34.2275 67.0489 35.4831 67.0489 37.0279C67.0489 38.5727 65.8257 39.8282 64.3096 39.8282C62.7936 39.8282 61.5703 38.5727 61.5703 37.0279Z" fill="white"/>
<path d="M102.323 39.4407V52.3163H97.3324V39.8212C97.3324 37.1882 96.2517 35.8564 94.0827 35.8564C91.6886 35.8564 90.4802 37.4469 90.4802 40.5745V47.4156H85.5269V40.5745C85.5269 37.4317 84.3336 35.8564 81.9245 35.8564C79.763 35.8564 78.6747 37.1882 78.6747 39.8212V52.3087H73.6914V39.4407C73.6914 36.8153 74.3443 34.7226 75.6577 33.1702C77.0162 31.6178 78.7948 30.834 80.9938 30.834C83.5455 30.834 85.4818 31.8385 86.7578 33.8475L88.0036 35.9782L89.2495 33.8475C90.5253 31.8462 92.4541 30.834 95.0133 30.834C97.2123 30.834 98.991 31.6255 100.349 33.1702C101.663 34.7226 102.316 36.8 102.316 39.4407H102.323ZM119.495 45.8404C120.53 44.7218 121.018 43.3368 121.018 41.6475C121.018 39.9581 120.523 38.5579 119.495 37.4926C118.504 36.3739 117.243 35.8412 115.72 35.8412C114.196 35.8412 112.943 36.3739 111.945 37.4926C110.954 38.5579 110.459 39.9581 110.459 41.6475C110.459 43.3368 110.954 44.737 111.945 45.8404C112.935 46.9057 114.196 47.4461 115.72 47.4461C117.243 47.4461 118.497 46.9134 119.495 45.8404ZM121.018 31.3515H125.934V51.9435H121.018V49.516C119.532 51.5325 117.476 52.5294 114.804 52.5294C112.132 52.5294 110.076 51.502 108.252 49.4018C106.459 47.3015 105.55 44.7065 105.55 41.6627C105.55 38.6188 106.466 36.0619 108.252 33.9616C110.084 31.8613 112.26 30.796 114.804 30.796C117.348 30.796 119.532 31.7853 121.018 33.7942V31.3667V31.3515ZM142.475 41.2594C143.924 42.378 144.645 43.938 144.607 45.9089C144.607 48.0092 143.887 49.6605 142.4 50.802C140.915 51.9206 139.12 52.4913 136.944 52.4913C133.019 52.4913 130.355 50.84 128.943 47.5983L133.207 45.0033C133.777 46.7688 135.031 47.682 136.944 47.682C138.7 47.682 139.571 47.1113 139.571 45.9165C139.571 45.049 138.43 44.2652 136.103 43.6564C135.225 43.4129 134.498 43.1618 133.935 42.9563C133.132 42.6292 132.448 42.2562 131.878 41.7997C130.467 40.681 129.747 39.2047 129.747 37.3099C129.747 35.2933 130.43 33.6877 131.803 32.531C133.215 31.3363 134.933 30.7655 136.989 30.7655C140.268 30.7655 142.663 32.2038 144.232 35.1259L140.044 37.5914C139.436 36.1913 138.4 35.4912 136.989 35.4912C135.503 35.4912 134.783 36.0619 134.783 37.1805C134.783 38.0481 135.923 38.8319 138.25 39.4407C140.044 39.8516 141.455 40.468 142.475 41.2594ZM158.102 36.45H153.793V45.0186C153.793 46.0458 154.176 46.6698 154.904 46.9515C155.437 47.1569 156.503 47.1949 158.109 47.1188V51.9358C154.799 52.3467 152.397 52.0119 150.987 50.9085C149.575 49.8431 148.892 47.857 148.892 45.0262V36.45H145.582V31.3438H148.892V27.189L153.808 25.5833V31.3515H158.117V36.4577H158.109L158.102 36.45ZM173.772 45.7187C174.763 44.6533 175.257 43.2912 175.257 41.6399C175.257 39.9885 174.763 38.6417 173.772 37.561C172.773 36.4957 171.557 35.9553 170.072 35.9553C168.585 35.9553 167.37 36.4881 166.372 37.561C165.418 38.6797 164.923 40.0266 164.923 41.6399C164.923 43.2531 165.418 44.6 166.372 45.7187C167.362 46.784 168.585 47.3243 170.072 47.3243C171.557 47.3243 172.773 46.7917 173.772 45.7187ZM162.912 49.3789C160.968 47.2787 160.015 44.7294 160.015 41.6399C160.015 38.5503 160.968 36.0391 162.912 33.9388C164.856 31.8385 167.257 30.7732 170.072 30.7732C172.886 30.7732 175.295 31.8385 177.232 33.9388C179.168 36.0391 180.166 38.634 180.166 41.6399C180.166 44.6457 179.168 47.2787 177.232 49.3789C175.287 51.4793 172.924 52.5065 170.072 52.5065C167.22 52.5065 164.848 51.4793 162.912 49.3789ZM196.602 45.8328C197.593 44.7142 198.088 43.3292 198.088 41.6399C198.088 39.9505 197.593 38.5503 196.602 37.4849C195.612 36.3663 194.351 35.8337 192.827 35.8337C191.304 35.8337 190.042 36.3663 189.015 37.4849C188.024 38.5503 187.528 39.9505 187.528 41.6399C187.528 43.3292 188.024 44.7294 189.015 45.8328C190.05 46.8982 191.342 47.4385 192.827 47.4385C194.313 47.4385 195.604 46.9058 196.602 45.8328ZM198.088 23.1025H203.003V51.9358H198.088V49.5083C196.64 51.5249 194.583 52.5217 191.912 52.5217C189.24 52.5217 187.153 51.4945 185.314 49.3942C183.52 47.2938 182.613 44.699 182.613 41.6551C182.613 38.6112 183.528 36.0543 185.314 33.954C187.138 31.8537 189.352 30.7883 191.912 30.7883C194.471 30.7883 196.64 31.7777 198.088 33.7866V23.1101V23.1025ZM220.273 45.6958C221.263 44.6305 221.759 43.2683 221.759 41.617C221.759 39.9657 221.263 38.6188 220.273 37.5382C219.283 36.4728 218.067 35.9326 216.573 35.9326C215.08 35.9326 213.872 36.4652 212.873 37.5382C211.92 38.6568 211.424 40.0037 211.424 41.617C211.424 43.2303 211.92 44.5772 212.873 45.6958C213.864 46.7612 215.087 47.3015 216.573 47.3015C218.059 47.3015 219.275 46.7688 220.273 45.6958ZM209.413 49.3562C207.477 47.2558 206.516 44.7065 206.516 41.617C206.516 38.5275 207.47 36.0162 209.413 33.916C211.357 31.8157 213.758 30.7503 216.573 30.7503C219.388 30.7503 221.797 31.8157 223.733 33.916C225.677 36.0162 226.667 38.6112 226.667 41.617C226.667 44.6229 225.677 47.2558 223.733 49.3562C221.789 51.4564 219.425 52.4837 216.573 52.4837C213.721 52.4837 211.349 51.4564 209.413 49.3562ZM247.937 39.2657V51.913H243.021V39.9277C243.021 38.5655 242.683 37.5382 241.985 36.762C241.34 36.0619 240.424 35.6967 239.245 35.6967C236.469 35.6967 235.058 37.386 235.058 40.8028V51.9206H230.142V31.3438H235.058V33.6572C236.236 31.7243 238.112 30.7732 240.732 30.7732C242.825 30.7732 244.544 31.5113 245.881 33.0332C247.254 34.5552 247.937 36.6175 247.937 39.2884" fill="#000008"/>
<defs>
<linearGradient id="paint0_linear_799_5865" x1="75.2006" y1="23.1094" x2="75.2006" y2="72.5727" gradientUnits="userSpaceOnUse">
<stop stop-color="#6364FF"/>
<stop offset="1" stop-color="#563ACC"/>
</linearGradient>
</defs>
</svg>
