<svg width="364" height="100" viewBox="0 0 364 100" fill="none" xmlns="http://www.w3.org/2000/svg">
<path d="M28.8382 62.1101C26.5485 62.1101 24.4444 60.9343 23.3305 58.954C22.2166 57.0355 22.2785 54.6839 23.5162 52.8274L34.9029 35.4378C36.0787 33.5193 38.2446 32.4054 40.5343 32.4673C42.824 32.5292 44.9281 33.7669 45.9801 35.7472C47.0321 37.7275 46.9084 40.0791 45.6707 41.8738L34.2221 59.2634C33.0463 60.9962 31.0042 62.1101 28.8382 62.1101Z" fill="#FB275D"/>
<path d="M48.206 62.1106C45.9163 62.1106 43.8122 60.9348 42.6983 59.0163C41.5844 57.0979 41.6463 54.7463 42.884 52.8897L54.2707 35.5001C55.4465 33.5817 57.5505 32.4059 59.9021 32.4678C62.2537 32.5297 64.2959 33.7674 65.3479 35.7477C66.3999 37.728 66.2762 40.0796 64.9147 41.9361L53.528 59.2639C52.4141 60.9967 50.372 62.1106 48.206 62.1106Z" fill="#FFCC00"/>
<path d="M67.1469 62.1101C70.6124 62.1101 73.4591 59.2634 73.4591 55.7978C73.4591 52.3323 70.6124 49.4856 67.1469 49.4856C63.6814 49.4856 60.8347 52.3323 60.8347 55.7978C60.8347 59.3252 63.6195 62.1101 67.1469 62.1101Z" fill="#00CA72"/>
<path d="M119.709 33.7247C123.174 33.7247 125.897 34.7767 127.939 36.8807C129.981 38.9846 131.033 41.893 131.033 45.6059V61.8187H122.555V46.7197C122.555 44.9252 122.06 43.5638 121.132 42.5737C120.204 41.5836 118.904 41.0886 117.233 41.0886C115.563 41.0886 114.263 41.5836 113.273 42.5737C112.345 43.5638 111.911 44.9252 111.911 46.7197V61.8187H103.434V46.7197C103.434 44.9252 102.939 43.5638 102.01 42.5737C101.082 41.5836 99.7825 41.0886 98.1117 41.0886C96.4408 41.0886 95.1413 41.5836 94.1512 42.5737C93.223 43.5638 92.7898 44.9252 92.7898 46.7197V61.8187H84.25V34.0341H92.7898V37.4995C93.6561 36.3237 94.77 35.3955 96.1933 34.7767C97.5547 34.096 99.1637 33.7247 100.896 33.7247C103 33.7247 104.857 34.1579 106.466 35.0861C108.137 35.9524 109.436 37.2519 110.364 38.9227C111.355 37.3757 112.654 36.1381 114.325 35.2099C115.934 34.2198 117.728 33.7247 119.709 33.7247Z" fill="#333333"/>
<path d="M148.112 62.19C145.389 62.19 142.914 61.633 140.748 60.4573C138.582 59.2816 136.912 57.6108 135.612 55.5068C134.374 53.341 133.756 50.8039 133.756 47.9573C133.756 45.1108 134.374 42.5737 135.674 40.4698C136.912 38.3039 138.644 36.6331 140.872 35.4574C143.038 34.2817 145.513 33.7247 148.236 33.7247C150.959 33.7247 153.434 34.2817 155.6 35.4574C157.766 36.6331 159.499 38.3039 160.798 40.4698C162.036 42.6356 162.716 45.1108 162.716 47.9573C162.716 50.8039 162.036 53.341 160.798 55.5068C159.561 57.6727 157.766 59.3434 155.6 60.4573C153.31 61.633 150.835 62.19 148.112 62.19ZM148.112 54.8261C149.721 54.8261 151.144 54.2073 152.258 53.0316C153.434 51.8558 153.991 50.1232 153.991 47.8955C153.991 45.6678 153.434 43.997 152.32 42.7594C151.206 41.5836 149.845 40.9648 148.236 40.9648C146.565 40.9648 145.204 41.5836 144.09 42.7594C142.976 43.9351 142.481 45.6059 142.481 47.8955C142.481 50.1232 143.038 51.794 144.09 53.0316C145.142 54.2073 146.503 54.8261 148.112 54.8261Z" fill="#333333"/>
<path d="M182.58 33.7247C185.86 33.7247 188.397 34.7767 190.315 36.8807C192.296 38.9846 193.286 41.8311 193.286 45.544V61.7568H184.808V46.7197C184.808 44.8633 184.313 43.44 183.384 42.3881C182.394 41.3361 181.157 40.841 179.486 40.841C177.877 40.841 176.577 41.3361 175.587 42.3881C174.597 43.44 174.164 44.8633 174.164 46.7197V61.8187H165.624V34.0341H174.164V37.6851C175.03 36.4475 176.206 35.5193 177.629 34.7767C179.115 34.096 180.785 33.7247 182.58 33.7247Z" fill="#333333"/>
<path d="M196.008 47.8341C196.008 44.9875 196.565 42.4504 197.617 40.3465C198.731 38.1806 200.216 36.5099 202.073 35.396C203.929 34.2203 206.033 33.6633 208.261 33.6633C210.118 33.6633 211.727 34.0346 213.212 34.8391C214.759 35.5816 215.935 36.6336 216.801 37.9331V25H225.341V61.8191H216.801V57.8588C215.997 59.1583 214.883 60.2721 213.397 61.0766C211.912 61.881 210.241 62.2523 208.261 62.2523C205.972 62.2523 203.929 61.6954 202.073 60.5197C200.216 59.3439 198.731 57.6731 197.617 55.5073C196.565 53.2177 196.008 50.6806 196.008 47.8341ZM216.801 47.8959C216.801 45.792 216.182 44.1212 215.006 42.8836C213.831 41.646 212.407 41.0272 210.737 41.0272C209.066 41.0272 207.581 41.646 206.405 42.8836C205.229 44.0593 204.672 45.7301 204.672 47.8341C204.672 49.938 205.229 51.6707 206.405 52.9083C207.581 54.1459 209.066 54.7647 210.737 54.7647C212.407 54.7647 213.831 54.1459 215.006 52.9083C216.244 51.6707 216.801 50.0618 216.801 47.8959Z" fill="#333333"/>
<path d="M228.313 47.8344C228.313 44.9879 228.87 42.4508 229.922 40.3468C231.036 38.181 232.521 36.5102 234.378 35.3964C236.234 34.2206 238.338 33.6637 240.566 33.6637C242.546 33.6637 244.217 34.035 245.702 34.8394C247.188 35.6439 248.363 36.6959 249.106 37.9954V34.035H257.646V61.8195H249.106V57.921C248.301 59.2205 247.126 60.2725 245.64 61.077C244.155 61.8814 242.484 62.2527 240.504 62.2527C238.276 62.2527 236.172 61.6958 234.316 60.52C232.46 59.3443 230.974 57.6735 229.86 55.5077C228.808 53.2181 228.313 50.681 228.313 47.8344ZM249.106 47.8963C249.106 45.7924 248.487 44.1216 247.311 42.884C246.136 41.6463 244.712 41.0275 243.041 41.0275C241.371 41.0275 239.885 41.6463 238.71 42.884C237.534 44.0597 236.977 45.7305 236.977 47.8344C236.977 49.9384 237.534 51.6711 238.71 52.9087C239.885 54.1463 241.371 54.7651 243.041 54.7651C244.712 54.7651 246.136 54.1463 247.311 52.9087C248.487 51.6711 249.106 50.0621 249.106 47.8963Z" fill="#333333"/>
<path d="M290.626 34.0348L273.237 75H264.078L270.452 60.8911L259.127 34.0348H268.657L275.093 51.3615L281.467 33.9729L290.626 34.0348Z" fill="#333333"/>
<path d="M285.493 62.1289C284.75 62.1289 284.132 61.8814 283.575 61.4482C283.079 60.9531 282.832 60.3962 282.832 59.6536C282.832 58.973 283.079 58.3542 283.575 57.921C284.07 57.4259 284.688 57.1784 285.493 57.1784C286.235 57.1784 286.854 57.4259 287.349 57.921C287.844 58.3542 288.092 58.973 288.092 59.6536C288.092 60.3343 287.844 60.9531 287.349 61.4482C286.854 61.8814 286.235 62.1289 285.493 62.1289Z" fill="#333333"/>
<path d="M291.621 55.6933C291.621 54.3938 291.869 53.28 292.426 52.2899C292.982 51.2998 293.663 50.5572 294.591 50.0622C295.52 49.5052 296.572 49.2577 297.809 49.2577C299.356 49.2577 300.656 49.629 301.646 50.4335C302.636 51.176 303.379 52.2899 303.688 53.6513H300.285C300.099 53.0943 299.79 52.6612 299.356 52.4136C298.923 52.1042 298.428 51.9186 297.809 51.9186C296.881 51.9186 296.2 52.228 295.643 52.9087C295.086 53.5275 294.839 54.4557 294.839 55.6933C294.839 56.8691 295.086 57.7973 295.643 58.478C296.2 59.0968 296.881 59.4681 297.809 59.4681C299.109 59.4681 299.913 58.9111 300.285 57.7354H303.688C303.317 59.0968 302.636 60.1488 301.646 60.9532C300.656 61.7577 299.356 62.1289 297.809 62.1289C296.634 62.1289 295.52 61.8814 294.591 61.3245C293.663 60.7676 292.921 60.025 292.426 59.0968C291.869 58.1067 291.621 56.931 291.621 55.6933Z" fill="#333333"/>
<path d="M311.052 62.1282C309.876 62.1282 308.762 61.8806 307.834 61.3237C306.906 60.7668 306.101 60.0242 305.544 59.0341C304.987 58.044 304.74 56.9302 304.74 55.6307C304.74 54.3312 305.049 53.2173 305.606 52.2272C306.163 51.2371 306.967 50.4945 307.958 49.9995C308.948 49.4426 310 49.195 311.237 49.195C312.475 49.195 313.527 49.4426 314.517 49.9995C315.507 50.4945 316.25 51.299 316.807 52.2272C317.364 53.2173 317.673 54.3312 317.673 55.6307C317.673 56.9302 317.364 58.044 316.807 59.0341C316.25 60.0242 315.445 60.7668 314.455 61.3237C313.403 61.8188 312.289 62.1282 311.052 62.1282ZM311.052 59.3435C311.609 59.3435 312.166 59.2198 312.661 58.9104C313.156 58.6009 313.589 58.2297 313.898 57.6727C314.208 57.1158 314.331 56.4351 314.331 55.6307C314.331 54.4549 314.022 53.5267 313.403 52.9079C312.784 52.2891 312.042 51.9178 311.114 51.9178C310.185 51.9178 309.443 52.2272 308.824 52.9079C308.205 53.5267 307.896 54.4549 307.896 55.6307C307.896 56.8064 308.205 57.7346 308.762 58.3534C309.443 59.0341 310.185 59.3435 311.052 59.3435Z" fill="#333333"/>
<path d="M334.934 49.2577C336.481 49.2577 337.718 49.7528 338.647 50.681C339.575 51.6092 340.07 52.9087 340.07 54.5795V61.8814H336.914V55.0126C336.914 54.0225 336.666 53.28 336.171 52.7849C335.676 52.2899 334.996 51.9805 334.129 51.9805C333.263 51.9805 332.582 52.228 332.087 52.7849C331.592 53.28 331.345 54.0225 331.345 55.0126V61.8814H328.189V55.0126C328.189 54.0225 327.941 53.28 327.446 52.7849C326.951 52.2899 326.27 51.9805 325.404 51.9805C324.537 51.9805 323.857 52.228 323.3 52.7849C322.805 53.28 322.557 54.0225 322.557 55.0126V61.8814H319.401V49.4434H322.557V50.9285C322.928 50.4334 323.485 50.0003 324.104 49.6909C324.723 49.3815 325.466 49.2577 326.208 49.2577C327.198 49.2577 328.065 49.4434 328.807 49.8765C329.55 50.3097 330.169 50.8666 330.602 51.6092C331.035 50.8666 331.592 50.3097 332.335 49.8765C333.201 49.4434 334.067 49.2577 334.934 49.2577Z" fill="#333333"/>
</svg>
