<svg width="300" height="100" viewBox="0 0 300 100" fill="none" xmlns="http://www.w3.org/2000/svg">
<path fill-rule="evenodd" clip-rule="evenodd" d="M82.8864 26.0583C78.216 22.6306 71.3377 21 62.7208 21C54.3155 21 48.8737 23.3064 45.466 27.2418C41.9949 31.2505 40.2207 37.4161 40.2207 46C40.2207 54.2449 43.0552 60.3981 47.7295 64.5195C52.4457 68.678 59.3016 71 67.7208 71C75.8974 71 81.3551 68.066 84.8575 63.3431C88.45 58.4986 90.2209 51.4506 90.2209 42.875C90.2209 34.66 87.4168 29.3832 82.8864 26.0583ZM85.8448 22.0274C91.8846 26.4602 95.221 33.3708 95.221 42.875C95.221 52.0186 93.3515 60.2831 88.8737 66.3213C84.3059 72.4811 77.2634 76 67.7208 76C58.4209 76 50.2767 73.4316 44.4227 68.2698C38.5266 63.0711 35.2207 55.4743 35.2207 46C35.2207 36.8647 37.0869 29.2804 41.6861 23.9688C46.3487 18.5841 53.4069 16 62.7208 16C71.8232 16 79.945 17.6974 85.8448 22.0274Z" fill="#FFD970"/>
<path fill-rule="evenodd" clip-rule="evenodd" d="M75.9805 35.0764C73.3388 32.5283 69.3977 30.9998 64.2547 30.9998C59.0689 30.9998 55.7059 32.4203 53.6003 34.7126C51.4585 37.0442 50.2205 40.706 50.2205 45.9998C50.2205 51.2199 51.5917 54.8781 53.8891 57.2319C56.1768 59.5758 59.748 60.9998 64.9365 60.9998C70.1815 60.9998 73.9268 59.672 76.3501 57.4073C78.7449 55.1693 80.2207 51.6675 80.2207 46.5111C80.2207 41.4179 78.6103 37.613 75.9805 35.0764ZM79.4517 31.4776C83.2359 35.1278 85.2207 40.3285 85.2207 46.5111C85.2207 52.6305 83.4423 57.6231 79.764 61.0605C76.1142 64.4712 70.9674 65.9998 64.9365 65.9998C58.8492 65.9998 53.8124 64.3117 50.311 60.7244C46.8195 57.1472 45.2205 52.0555 45.2205 45.9998C45.2205 40.0178 46.6117 34.9295 49.918 31.3301C53.2605 27.6913 58.1646 25.9998 64.2547 25.9998C70.3875 25.9998 75.6794 27.839 79.4517 31.4776Z" fill="#FFD970"/>
<path fill-rule="evenodd" clip-rule="evenodd" d="M71.9003 38.6576C74.0058 40.4813 75.2209 43.1135 75.2209 46.2192C75.2209 48.9548 74.6142 51.5171 72.8548 53.3856C71.0671 55.2842 68.5341 56 65.7241 56C63.1643 56 60.531 55.6451 58.4957 54.2486C56.259 52.7137 55.2208 50.2743 55.2208 47.25C55.2208 44.627 55.6499 41.8817 57.0321 39.7173C58.5275 37.3757 60.9596 36 64.1819 36C67.0813 36 69.8332 36.8674 71.9003 38.6576Z" fill="#FFD970"/>
<path d="M111.801 46.1275C111.801 55.8782 118.063 62.6767 126.74 62.6767C135.417 62.6767 141.679 55.8782 141.679 46.1275C141.679 36.3768 135.417 29.5781 126.74 29.5781C118.063 29.5781 111.801 36.3768 111.801 46.1275ZM135.954 46.1275C135.954 53.105 132.152 57.6225 126.74 57.6225C121.328 57.6225 117.526 53.105 117.526 46.1275C117.526 39.1499 121.328 34.6323 126.74 34.6323C132.152 34.6323 135.954 39.1499 135.954 46.1275Z" fill="#00212A"/>
<path d="M165.138 38.7026H159.771V52.6577C159.771 56.0123 157.355 57.8015 154.94 57.8015C152.033 57.8015 150.78 55.9676 150.78 53.105V38.7026H145.413V54.2679C145.413 59.3222 148.454 62.6767 153.374 62.6767C156.416 62.6767 158.429 61.2455 159.771 59.68V62.1848H165.138V38.7026Z" fill="#00212A"/>
<path d="M170.829 56.2807C170.829 61.0666 173.244 62.4531 177.717 62.4531C179.103 62.4531 180.445 62.319 181.429 62.1401V57.6225C180.624 57.712 180.132 57.7567 179.238 57.7567C177.314 57.7567 176.107 57.533 176.107 55.4308V43.2649H181.027V38.7026H176.107V31.8144H170.829V38.7026H167.563V43.2649H170.829V56.2807Z" fill="#00212A"/>
<path d="M182.865 57.712C184.967 60.9325 189.306 62.6768 193.645 62.6768C198.967 62.6768 203.306 59.6354 203.306 54.8942C203.306 49.5269 198.296 48.6771 194.315 47.8272C191.363 47.2011 189.664 46.8879 189.664 45.1883C189.664 43.6228 191.095 42.6388 193.287 42.6388C195.881 42.6388 198.117 43.8465 199.459 45.9487L203.082 42.6835C201.383 40.0893 197.715 38.2554 193.6 38.2554C188.188 38.2554 184.431 41.3863 184.431 45.6802C184.431 50.6898 188.68 51.6291 192.392 52.3895C196.105 53.1499 198.073 53.3735 198.073 55.3862C198.073 57.4884 195.97 58.2935 193.689 58.2935C190.961 58.2935 188.277 56.7728 186.891 54.4917L182.865 57.712Z" fill="#00212A"/>
<path d="M216.949 62.6768C221.645 62.6768 225.358 60.2169 227.013 56.1019L222.406 54.3575C221.69 56.7728 219.588 58.1146 216.949 58.1146C213.505 58.1146 211.089 55.6546 210.687 51.6291H227.147V49.8399C227.147 43.3991 223.524 38.2554 216.725 38.2554C210.195 38.2554 205.543 43.578 205.543 50.4661C205.543 57.712 210.239 62.6768 216.949 62.6768ZM216.68 42.7729C220.08 42.7729 221.69 45.0094 221.735 47.6036H210.955C211.76 44.4279 213.907 42.7729 216.68 42.7729Z" fill="#00212A"/>
<path d="M231.389 56.2807C231.389 61.0666 233.804 62.4531 238.277 62.4531C239.663 62.4531 241.005 62.319 241.989 62.1401V57.6225C241.184 57.712 240.692 57.7567 239.798 57.7567C237.874 57.7567 236.667 57.533 236.667 55.4308V43.2649H241.587V38.7026H236.667V31.8144H231.389V38.7026H228.123V43.2649H231.389V56.2807Z" fill="#00212A"/>
<path d="M251.663 62.5874C254.705 62.5874 257.165 61.6034 258.641 59.9485C259.446 61.8718 261.503 62.6322 265.395 62.1849V58.0252C263.919 58.2041 263.337 57.8015 263.337 56.4597V46.3512C263.337 40.9392 259.938 38.2554 254.302 38.2554C249.114 38.2554 245.67 41.2969 244.507 45.1883L249.561 46.3512C250.187 44.0701 251.529 42.9071 254.078 42.9071C256.941 42.9071 258.104 44.2937 258.104 46.5301V46.9326L251.618 48.2745C247.101 49.2138 243.746 51.1819 243.746 55.6547C243.746 59.8591 247.19 62.5874 251.663 62.5874ZM258.104 53.9102C258.104 56.7728 255.331 58.2935 252.468 58.2935C250.411 58.2935 249.069 57.2648 249.069 55.4309C249.069 53.3287 250.769 52.6131 253.05 52.121L258.104 51.0476V53.9102Z" fill="#00212A"/>
</svg>
