<svg width="300" height="100" viewBox="0 0 300 100" fill="none" xmlns="http://www.w3.org/2000/svg">
<path d="M73.5277 33.9703C75.996 33.9703 77.9968 31.9694 77.9968 29.5013C77.9968 27.0331 75.996 25.0322 73.5277 25.0322C71.0595 25.0322 69.0587 27.0331 69.0587 29.5013C69.0587 31.9694 71.0595 33.9703 73.5277 33.9703Z" fill="#017737"/>
<path d="M77.5411 36.2085H69.5176V63.7367H77.5411V36.2085Z" fill="#017737"/>
<path d="M202.652 33.9703C205.12 33.9703 207.121 31.9694 207.121 29.5013C207.121 27.0331 205.12 25.0322 202.652 25.0322C200.183 25.0322 198.183 27.0331 198.183 29.5013C198.183 31.9694 200.183 33.9703 202.652 33.9703Z" fill="#017737"/>
<path d="M206.663 36.2085H198.64V63.7367H206.663V36.2085Z" fill="#017737"/>
<path d="M265.012 49.0656C265.012 41.2082 258.749 35.6039 251.221 35.6039C242.759 35.6039 236.604 41.4833 236.604 49.9455C236.604 58.2987 242.375 64.2871 251.221 64.2871C258.749 64.2871 263.748 59.6173 264.683 54.4517H256.934C256.054 56.7049 253.472 57.969 251.055 57.969C247.813 57.9145 245.396 55.991 244.682 51.8144H264.958L265.012 49.0656ZM244.846 46.8125C245.726 42.7474 248.747 41.7584 251.219 41.7584C253.747 41.7584 256.714 43.0225 257.098 46.8125H244.846Z" fill="#017737"/>
<path d="M230.67 36.2085H238.912L227.7 63.7367H219.241L208.03 36.2085H216.658L223.635 54.4491L230.67 36.2085Z" fill="#017737"/>
<path d="M186.546 40.6033C188.415 37.6909 191.382 35.822 194.788 35.822C195.393 35.822 196.161 35.8765 196.657 36.0426V43.5703C195.998 43.4612 195.284 43.4067 194.624 43.4067C189.459 43.4067 186.767 47.1991 186.767 52.6373V63.7369H178.801V43.4612C178.801 43.0225 178.634 42.911 178.141 42.911H175.392V36.2086H182.315C185.119 36.2086 186.546 37.5273 186.546 40.001V40.6033Z" fill="#017737"/>
<path d="M173.962 57.032C173.524 57.032 173.412 56.9229 173.412 56.4817V29.0105C173.412 26.2641 171.984 25 169.072 25H162.094V31.6478H164.677C165.17 31.6478 165.336 31.8114 165.336 32.2526V38.7368C164.293 37.3637 161.38 35.6038 157.479 35.6038C149.731 35.6038 144.072 41.4832 144.072 49.9454C144.072 58.5712 149.513 64.2871 157.258 64.2871C161.599 64.2871 164.677 62.0885 165.83 60.2766C165.939 61.4862 166.764 63.7393 169.731 63.7393H176.82V57.0369H173.962V57.032ZM158.907 57.6913C155.06 57.6913 152.259 54.7243 152.259 49.943C152.259 45.3822 155.117 42.3061 158.961 42.3061C163.301 42.3061 165.5 46.1531 165.5 49.8884C165.5 55.7133 161.985 57.6913 158.907 57.6913Z" fill="#017737"/>
<path d="M142.312 49.0656C142.312 41.2082 136.048 35.6039 128.52 35.6039C120.058 35.6039 113.904 41.4833 113.904 49.9455C113.904 58.2987 119.674 64.2871 128.52 64.2871C136.048 64.2871 141.048 59.6173 141.982 54.4517H134.234C133.354 56.7049 130.771 57.969 128.354 57.969C125.112 57.9145 122.695 55.991 121.982 51.8144H142.257L142.312 49.0656ZM122.148 46.8125C123.028 42.7474 126.049 41.7584 128.52 41.7584C131.049 41.7584 134.016 43.0225 134.4 46.8125H122.148Z" fill="#017737"/>
<path d="M99.1801 35.6039C94.6739 35.6039 91.4863 37.966 90.2792 39.9986C90.0585 38.8435 89.2902 36.2062 86.2141 36.2062H79.5117V42.911H82.2581C82.7514 42.911 82.8629 43.0201 82.8629 43.4613V75H90.8864V62.8024L90.8319 60.8244C91.9845 62.7479 95.063 64.2871 98.7984 64.2871C106.656 64.2871 112.151 58.4622 112.151 49.9455C112.146 41.3717 106.926 35.6039 99.1801 35.6039ZM97.1451 57.6914C92.8049 57.6914 90.7154 53.7899 90.7154 50.0546C90.7154 44.3412 94.1781 42.3062 97.2542 42.3062C100.99 42.3062 103.957 45.4393 103.957 49.9976C103.959 55.3837 100.333 57.6914 97.1451 57.6914Z" fill="#017737"/>
<path d="M67.6393 49.9454C67.6393 58.4622 62.1441 64.2871 54.2866 64.2871C50.5513 64.2871 47.4727 62.7478 46.3202 60.8244L46.3747 62.8023V74.9999H38.3537V43.4612C38.3537 43.0225 38.2446 42.9109 37.7489 42.9109H35V36.2086H41.7048C44.7809 36.2086 45.5518 38.8459 45.7699 40.001C46.9795 37.9685 50.1646 35.6063 54.6708 35.6063C62.4192 35.6038 67.6393 41.3717 67.6393 49.9454ZM59.4522 50C59.4522 45.4392 56.4852 42.3086 52.7474 42.3086C49.6713 42.3086 46.2086 44.3411 46.2086 50.057C46.2086 53.7923 48.2957 57.6938 52.6383 57.6938C55.8259 57.6913 59.4522 55.3837 59.4522 50Z" fill="#017737"/>
</svg>
