<svg width="300" height="100" viewBox="0 0 300 100" fill="none" xmlns="http://www.w3.org/2000/svg">
<path d="M114.219 64.3713L116.687 58.6388C119.354 60.6292 122.897 61.6643 126.401 61.6643C128.988 61.6643 130.621 60.669 130.621 59.1563C130.581 54.9365 115.134 58.2407 115.015 47.6514C114.975 42.2772 119.752 38.137 126.52 38.137C130.541 38.137 134.562 39.1323 137.428 41.4014L135.119 47.2533C132.492 45.5814 129.227 44.3871 126.122 44.3871C124.012 44.3871 122.619 45.3823 122.619 46.6562C122.659 50.7964 138.224 48.5272 138.384 58.6388C138.384 64.1324 133.726 67.9939 127.038 67.9939C122.141 67.9939 117.642 66.8395 114.219 64.3713Z" fill="#000008"/>
<path d="M208.928 56.5687C207.694 58.7184 205.385 60.1913 202.718 60.1913C198.776 60.1913 195.591 57.0066 195.591 53.0655C195.591 49.1244 198.776 45.9396 202.718 45.9396C205.385 45.9396 207.694 47.4126 208.928 49.5623L215.736 45.7804C213.188 41.2422 208.291 38.137 202.718 38.137C194.477 38.137 187.789 44.825 187.789 53.0655C187.789 61.306 194.477 67.9939 202.718 67.9939C208.331 67.9939 213.188 64.9286 215.736 60.3506L208.928 56.5687Z" fill="#000008"/>
<path d="M141.811 25.7559H150.33V67.4361H141.811V25.7559Z" fill="#000008"/>
<path d="M219.079 25.7559V67.4361H227.598V54.936L237.71 67.4361H248.618L235.759 52.5872L247.663 38.7336H237.232L227.598 50.2385V25.7559H219.079Z" fill="#000008"/>
<path d="M175.646 56.6483C174.412 58.6786 171.864 60.1913 168.998 60.1913C165.057 60.1913 161.872 57.0066 161.872 53.0655C161.872 49.1244 165.057 45.9396 168.998 45.9396C171.864 45.9396 174.412 47.532 175.646 49.6021V56.6483ZM175.646 38.7342V42.118C174.253 39.7692 170.789 38.137 167.167 38.137C159.682 38.137 153.79 44.7454 153.79 53.0257C153.79 61.306 159.682 67.9939 167.167 67.9939C170.789 67.9939 174.253 66.3617 175.646 64.013V67.3968H184.166V38.7342H175.646Z" fill="#000008"/>
<path d="M61.4933 56.6012C61.4933 59.4944 59.13 61.8579 56.2369 61.8579C53.3438 61.8579 50.9805 59.4944 50.9805 56.6012C50.9805 53.708 53.3438 51.3446 56.2369 51.3446H61.4933V56.6012Z" fill="#E01E5A"/>
<path d="M64.1406 56.6013C64.1406 53.7081 66.504 51.3446 69.397 51.3446C72.2901 51.3446 74.6535 53.7081 74.6535 56.6013V69.7634C74.6535 72.6566 72.2901 75.02 69.397 75.02C66.504 75.02 64.1406 72.6566 64.1406 69.7634V56.6013Z" fill="#E01E5A"/>
<path d="M69.397 35.4928C66.504 35.4928 64.1406 33.1294 64.1406 30.2362C64.1406 27.343 66.504 24.9795 69.397 24.9795C72.2901 24.9795 74.6535 27.343 74.6535 30.2362V35.4928H69.397Z" fill="#36C5F0"/>
<path d="M69.3983 38.1415C72.2914 38.1415 74.6547 40.505 74.6547 43.3982C74.6547 46.2914 72.2914 48.6549 69.3983 48.6549H56.2369C53.3438 48.6549 50.9805 46.2914 50.9805 43.3982C50.9805 40.505 53.3438 38.1415 56.2369 38.1415H69.3983Z" fill="#36C5F0"/>
<path d="M90.5064 43.3981C90.5064 40.5049 92.8697 38.1415 95.7628 38.1415C98.6558 38.1415 101.019 40.5049 101.019 43.3981C101.019 46.2913 98.6558 48.6548 95.7628 48.6548H90.5064V43.3981Z" fill="#2EB67D"/>
<path d="M87.859 43.3982C87.859 46.2914 85.4957 48.6549 82.6026 48.6549C79.7096 48.6549 77.3462 46.2914 77.3462 43.3982V30.2362C77.3462 27.343 79.7096 24.9795 82.6026 24.9795C85.4957 24.9795 87.859 27.343 87.859 30.2362V43.3982Z" fill="#2EB67D"/>
<path d="M82.6026 64.5068C85.4957 64.5068 87.859 66.8702 87.859 69.7634C87.859 72.6566 85.4957 75.0201 82.6026 75.0201C79.7096 75.0201 77.3462 72.6566 77.3462 69.7634V64.5068H82.6026Z" fill="#ECB22E"/>
<path d="M82.6026 61.8581C79.7096 61.8581 77.3462 59.4946 77.3462 56.6014C77.3462 53.7082 79.7096 51.3447 82.6026 51.3447H95.7641C98.6571 51.3447 101.02 53.7082 101.02 56.6014C101.02 59.4946 98.6571 61.8581 95.7641 61.8581H82.6026Z" fill="#ECB22E"/>
</svg>
